<mxfile host="app.diagrams.net" modified="2023-06-05T16:18:03.388Z" agent="Mozilla/5.0 (X11; Ubuntu; Linux x86_64; rv:109.0) Gecko/20100101 Firefox/113.0" version="21.3.7" etag="Vt7dhuRpBegEKdXJiu9M" type="github">
  <diagram name="Page-1" id="QDUqZOJSPmUuo3ztOlQg">
    <mxGraphModel>
      <root>
        <mxCell id="0" />
        <mxCell id="1" parent="0" />
      </root>
    </mxGraphModel>
  </diagram>
</mxfile>
